# AST/ASF file generated using VICON BodyLanguage
# -----------------------------------------------
:version 1.10
:name VICON
:units
  mass 1.0
  length 0.45
  angle deg
:documentation
   .ast/.asf automatically generated from VICON data using
   VICON BodyBuilder and BodyLanguage model FoxedUp or BRILLIANT.MOD
:root
   order TX TY TZ RX RY RZ
   axis XYZ
   position 0 0 0  
   orientation 0 0 0 
:bonedata
  begin
     id 1 
     name lhipjoint
     direction 0.576517 -0.752066 0.319413 
     length 2.45433 
     axis 0 0 0  XYZ
  end
  begin
     id 2 
     name lfemur
     direction 0.34202 -0.939693 0  
     length 7.54459  
     axis 0 0 20  XYZ
    dof rx ry rz
    limits (-160.0 20.0)
           (-70.0 70.0)
           (-60.0 70.0)
  end
  begin
     id 3 
     name ltibia
     direction 0.34202 -0.939693 0   
     length 7.73986   
     axis 0 0 20   XYZ
    dof rx
    limits (-10.0 170.0)
  end
  begin
     id 4 
     name lfoot
     direction 0.090693 -0.249177 0.964202   
     length 2.28437   
     axis -90 7.62852e-016 20   XYZ
    dof rx rz
    limits (-45.0 90.0)
           (-70.0 20.0)
  end
  begin
     id 5 
     name ltoes
     direction 1.5356e-011 -4.21928e-011 1   
     length 1.14243   
     axis -90 7.62852e-016 20   XYZ
    dof rx
    limits (-90.0 20.0)
  end
  begin
     id 6 
     name rhipjoint
     direction -0.573937 -0.753736 0.320122   
     length 2.44889  
     axis 0 0 0  XYZ 
  end
  begin
     id 7 
     name rfemur
     direction -0.34202 -0.939693 0   
     length 7.50166   
     axis 0 0 -20   XYZ
    dof rx ry rz
    limits (-160.0 20.0)
           (-70.0 70.0)
           (-70.0 60.0)
  end
  begin
     id 8 
     name rtibia
     direction -0.34202 -0.939693 0   
     length 7.54266   
     axis 0 0 -20   XYZ
    dof rx
    limits (-10.0 170.0)
 end
 begin
     id 9 
     name rfoot
     direction -0.114017 -0.31326 0.942798   
     length 2.34212  
     axis -90 -7.62852e-016 -20   XYZ
    dof rx rz
    limits (-45.0 90.0)
           (-20.0 70.0)
  end
  begin
     id 10 
     name rtoes
     direction -1.53557e-011 -4.21867e-011 1   
     length 1.16246   
     axis -90 -7.62852e-016 -20   XYZ
    dof rx
    limits (-90.0 20.0)
  end
  begin
     id 11 
     name lowerback
     direction -0.0228371 0.999155 -0.034167   
     length 2.0537   
     axis 0 0 0   XYZ
    dof rx ry rz
    limits (-20.0 45.0)
           (-30.0 30.0)
           (-30.0 30.0)
  end
  begin
     id 12 
     name upperback
     direction 0.0198981 0.999794 0.00389455   
     length 2.05302   
     axis 0 0 0   XYZ
    dof rx ry rz
    limits (-20.0 45.0)
           (-30.0 30.0)
           (-30.0 30.0)
  end
  begin
     id 13 
     name thorax
     direction 0.0304566 0.99935 0.0192987   
     length 2.05315   
     axis 0 0 0   XYZ
    dof rx ry rz
    limits (-20.0 45.0)
           (-30.0 30.0)
           (-30.0 30.0)
  end
  begin
     id 14 
     name lowerneck
     direction -0.0196762 0.99417 0.106017   
     length 1.82056   
     axis 0 0 0   XYZ
    dof rx ry rz
    limits (-20.0 45.0)
           (-30.0 30.0)
           (-30.0 30.0)
  end
  begin
     id 15 
     name upperneck
     direction 0.00517787 0.9802 -0.197944   
     length 1.83835   
     axis 0 0 0   XYZ
    dof rx ry rz
    limits (-20.0 45.0)
           (-30.0 30.0)
           (-30.0 30.0)
  end
  begin
     id 16
     name head
     direction 0.00211419 0.996945 -0.078081  
     length 1.85629  
     axis 0 0 0   XYZ
    dof rx ry rz
    limits (-20.0 45.0)
           (-30.0 30.0)
           (-30.0 30.0)
  end
  begin
     id 17 
     name lclavicle
     direction 0.930001 0.365811 -0.0357824  
     length 3.81961  
     axis 0 0 0   XYZ
    dof ry rz
    limits (-20.0 10.0)
           (0.0 20.0)
  end
  begin
     id 18 
     name lhumerus
     direction 1 -4.48968e-011 -3.06644e-027   
     length 5.14507   
     axis 180 -30 -90   XYZ
    dof rx ry rz
    limits (-60.0 90.0)
           (-90.0 90.0)
           (-90.0 90.0)
  end
  begin
     id 19
     name lradius
     direction 1 -4.48965e-011 9.06925e-028   
     length 3.50646   
     axis 180 -30 -90   XYZ
    dof rx
    limits (-10.0 170.0)
  end
  begin
     id 20
     name lwrist
     direction 1 -4.48957e-011 1.03922e-027   
     length 1.75323   
     axis -2.56395e-016 90 90   XYZ
    dof ry
    limits (-180.0 0.0)
 end
  begin
     id 21 
     name lhand
     direction 1 -4.48967e-011 2.08017e-027   
     length 0.629969   
     axis -1.32723e-015 90 90   XYZ
    dof rx rz
    limits (-90.0 90.0)
           (-45.0 45.0)
  end
  begin
     id 22 
     name lfingers
     direction 1 -4.49089e-011 4.20095e-027   
     length 0.507897   
     axis -2.6545e-015 90 90   XYZ
    dof rx
    limits (0.0 90.0)
  end
  begin
     id 23
     name lthumb
     direction 0.707107 -6.35001e-011 0.707107   
     length 0.729241   
     axis -90 45 5.05613e-014   XYZ
    dof rx rz
    limits (-45.0 45.0)
           (-45.0 45.0)
  end
  begin
     id 24 
     name rclavicle
     direction -0.881882 0.464123 -0.0829113   
     length 3.47515  
     axis 0 0 0   XYZ 
    dof ry rz
    limits (-10.0 20.0)
           (-20.0 0.0)
  end
  begin
     id 25 
     name rhumerus
     direction -1 -4.48961e-011 -1.55672e-027  
     length 5.232   
     axis 180 30 90   XYZ
    dof rx ry rz
    limits (-90.0 60.0)
           (-90.0 90.0)
           (-90.0 90.0)
  end
  begin
     id 26 
     name rradius
     direction -1 -4.48963e-011 6.18178e-029   
     length 3.65641   
     axis 180 30 90   XYZ
    dof rx
    limits (-10.0 170.0)
  end
  begin
     id 27 
     name rwrist
     direction -1 -4.48982e-011 1.04136e-027   
     length 1.8282   
     axis -2.56395e-016 -90 -90   XYZ
    dof ry
    limits (-180.0 0.0)
  end
  begin
     id 28
     name rhand
     direction -1 -4.48929e-011 2.07378e-027   
     length 0.656807   
     axis -1.32723e-015 -90 -90   XYZ
    dof rx rz
    limits (-90.0 90.0)
           (-45.0 45.0)
  end
  begin
     id 29
     name rfingers
     direction -1 -4.489e-011 4.13816e-027   
     length 0.529535   
     axis -2.6545e-015 -90 -90   XYZ
    dof rx
    limits (0.0 90.0)
  end
  begin
     id 30
     name rthumb
     direction -0.707107 -6.34843e-011 0.707107   
     length 0.760309   
     axis -90 -45 -5.05613e-014   XYZ
    dof rx rz
    limits (-45.0 45.0)
           (-45.0 45.0)
  end
:hierarchy
  begin
    root lhipjoint rhipjoint lowerback
    lhipjoint lfemur
    lfemur ltibia
    ltibia lfoot
    lfoot ltoes
    rhipjoint rfemur
    rfemur rtibia
    rtibia rfoot
    rfoot rtoes
    lowerback upperback
    upperback thorax
    thorax lowerneck lclavicle rclavicle
    lowerneck upperneck
    upperneck head
    lclavicle lhumerus
    lhumerus lradius
    lradius lwrist
    lwrist lhand lthumb
    lhand lfingers
    rclavicle rhumerus
    rhumerus rradius
    rradius rwrist
    rwrist rhand rthumb
    rhand rfingers
  end

#!OML:ASF H:\ManfredETheater\Project 1\Capture day 1\Session 1\subject.ASF
:FULLY-SPECIFIED
:DEGREES
17
root 2.1793 15.2986 30.3633 -152.706 -3.85367 -186.591
lowerback 18.9908 -1.80035 -4.88087
upperback -0.950371 -3.59884 0.0532695
thorax -11.4497 -1.43149 3.8608
lowerneck -18.1104 -4.83294 -4.47916
upperneck -7.66361 -4.11673 5.88386
head 0.856141 -1.18243 2.44798
rclavicle -4.37326e-015 1.61016e-014
rhumerus -65.4448 -2.08735 -78.7717
rradius 59.0102
rwrist -10.6005
rhand -29.9736 9.41513
rfingers 7.12502
rthumb -3.29199 -20.5392
lclavicle -4.37326e-015 1.61016e-014
lhumerus -25.0452 -19.8153 101.459
lradius 115.415
lwrist 19.4059
lhand -24.0763 -10.1105
lfingers 7.12502
lthumb 2.40365 19.8557
rfemur -66.8315 -13.5697 16.8617
rtibia 98.7098
rfoot -8.05626 -4.52208
rtoes -28.6809
lfemur -28.6234 -5.70573 -29.3166
ltibia 55.3555
lfoot -35.1606 -14.905
ltoes 16.0902
18
root 2.18319 15.3466 29.7994 -152.704 -4.02416 -186.464
lowerback 18.6959 -2.03204 -4.77385
upperback -1.12773 -3.8122 0.399464
thorax -11.4417 -1.51511 4.22864
lowerneck -18.5689 -4.54062 -4.34971
upperneck -7.39241 -3.7469 5.41234
head 0.984891 -1.0095 2.28916
rclavicle 3.97569e-014 3.45885e-014
rhumerus -68.1924 -0.785443 -78.5615
rradius 60.9215
rwrist -10.8606
rhand -29.9345 10.1502
rfingers 7.12502
rthumb -3.25425 -19.8047
lclavicle 3.97569e-014 3.45885e-014
lhumerus -23.6338 -21.2147 101.166
lradius 119.046
lwrist 20.48
lhand -23.9212 -10.2646
lfingers 7.12502
lthumb 2.55348 19.6998
rfemur -69.7457 -13.2034 17.1518
rtibia 97.7554
rfoot -8.89259 -4.71058
rtoes -29.4714
lfemur -25.3757 -6.26448 -28.8868
ltibia 52.6737
lfoot -33.3639 -15.1856
ltoes 13.9945
19
root 2.18632 15.4047 29.2237 -152.751 -4.11897 -186.288
lowerback 18.4033 -2.24953 -4.63881
upperback -1.28319 -4.00464 0.748316
thorax -11.4118 -1.59356 4.57588
lowerneck -19.0159 -4.228 -4.22632
upperneck -7.11426 -3.35112 4.94414
head 1.11617 -0.826196 2.13672
rclavicle 1.68967e-014 1.78906e-015
rhumerus -70.8067 0.524123 -78.4914
rradius 62.8813
rwrist -11.3475
rhand -29.8177 10.7827
rfingers 7.12502
rthumb -3.14145 -19.1739
lclavicle 1.68967e-014 1.78906e-015
lhumerus -22.3719 -22.5983 100.545
lradius 122.587
lwrist 21.078
lhand -23.7 -10.4912
lfingers 7.12502
lthumb 2.76705 19.4706
rfemur -72.2831 -12.7171 17.3995
rtibia 96.3657
rfoot -9.65435 -4.87937
rtoes -30.1194
lfemur -22.0775 -6.89807 -28.471
ltibia 49.8735
lfoot -30.918 -15.4251
ltoes 11.4904
20
root 2.18877 15.4724 28.6374 -152.855 -4.10687 -186.071
lowerback 18.1212 -2.43668 -4.4856
upperback -1.4105 -4.16019 1.07971
thorax -11.361 -1.6598 4.88206
lowerneck -19.4506 -3.91306 -4.11892
upperneck -6.82602 -2.95167 4.49514
head 1.2529 -0.643005 1.99609
rclavicle -2.25621e-014 -1.21259e-014
rhumerus -73.2323 1.74025 -78.5002
rradius 64.7598
rwrist -11.8754
rhand -29.6528 11.3068
rfingers 7.12502
rthumb -2.98212 -18.6521
lclavicle -2.25621e-014 -1.21259e-014
lhumerus -21.2809 -23.8899 99.6424
lradius 125.968
lwrist 21.0644
lhand -23.4149 -10.7931
lfingers 7.12502
lthumb 3.04241 19.165
rfemur -74.4232 -12.1097 17.5818
rtibia 94.5627
rfoot -10.3343 -4.96529
rtoes -30.6257
lfemur -18.7525 -7.54735 -28.1102
ltibia 46.9731
lfoot -27.6418 -15.6404
ltoes 8.69796
21
root 2.19164 15.5365 28.0456 -153.012 -3.97512 -185.825
lowerback 17.8601 -2.58305 -4.32626
upperback -1.50975 -4.26934 1.38066
thorax -11.2975 -1.70856 5.13822
lowerneck -19.8705 -3.61391 -4.03646
upperneck -6.52392 -2.5713 4.07252
head 1.3972 -0.471046 1.86941
rclavicle 3.37934e-015 -3.37934e-015
rhumerus -75.4336 2.79237 -78.5309
rradius 66.4681
rwrist -12.2624
rhand -29.4912 11.7691
rfingers 7.12502
rthumb -2.82612 -18.1919
lclavicle 3.37934e-015 -3.37934e-015
lhumerus -20.3844 -25.0149 98.5402
lradius 129.129
lwrist 20.4397
lhand -23.0902 -11.1667
lfingers 7.12502
lthumb 3.35601 18.7867
rfemur -76.2526 -11.3873 17.6923
rtibia 92.4497
rfoot -10.903 -4.92939
rtoes -31.0137
lfemur -15.4674 -8.16327 -27.8336
ltibia 44.0463
lfoot -23.3491 -15.8583
ltoes 5.74213
22
root 2.19402 15.6181 27.4415 -153.215 -3.73145 -185.566
lowerback 17.6076 -2.68507 -4.16872
upperback -1.57634 -4.32883 1.64236
thorax -11.2103 -1.73851 5.3375
lowerneck -20.2785 -3.34709 -3.98854
upperneck -6.20817 -2.22886 3.68785
head 1.55039 -0.318768 1.76055
rclavicle -4.45278e-014 -1.92821e-014
rhumerus -77.3806 3.62398 -78.536
rradius 67.9731
rwrist -12.417
rhand -29.3509 12.1832
rfingers 7.12502
rthumb -2.69061 -17.7796
lclavicle -4.45278e-014 -1.92821e-014
lhumerus -19.6899 -25.9171 97.3208
lradius 132.023
lwrist 19.3579
lhand -22.7455 -11.6058
lfingers 7.12502
lthumb 3.68889 18.342
rfemur -77.6025 -10.595 17.7389
rtibia 89.9501
rfoot -11.4369 -4.75383
rtoes -31.3933
lfemur -12.2391 -8.74221 -27.6447
ltibia 41.0683
lfoot -17.7096 -16.092
ltoes 3.23538
23
root 2.197 15.7035 26.8304 -153.438 -3.38423 -185.31
lowerback 17.3462 -2.74302 -4.02708
upperback -1.61797 -4.34067 1.8618
thorax -11.0973 -1.74924 5.48438
lowerneck -20.6703 -3.12327 -3.98352
upperneck -5.88288 -1.93594 3.34535
head 1.71043 -0.191415 1.67111
rclavicle -1.00784e-013 1.35174e-014
rhumerus -79.0459 4.21949 -78.4796
rradius 69.2565
rwrist -12.3424
rhand -29.2365 12.5874
rfingers 7.12502
rthumb -2.58007 -17.3768
lclavicle -1.00784e-013 1.35174e-014
lhumerus -19.2068 -26.5474 96.0674
lradius 134.6
lwrist 18.0516
lhand -22.4186 -12.0567
lfingers 7.12502
lthumb 4.00456 17.8854
rfemur -78.6046 -9.76335 17.7438
rtibia 87.1908
rfoot -11.9351 -4.43822
rtoes -31.8353
lfemur -9.17357 -9.27256 -27.5555
ltibia 38.144
lfoot -10.655 -16.0767
ltoes 1.21053
24
root 2.20085 15.7894 26.2138 -153.66 -2.95252 -185.082
lowerback 17.0607 -2.76254 -3.91756
upperback -1.64025 -4.31461 2.03515
thorax -10.9546 -1.74411 5.58566
lowerneck -21.0356 -2.94669 -4.02253
upperneck -5.55605 -1.69737 3.05068
head 1.87246 -0.0909264 1.60229
rclavicle 6.7388e-014 -1.78906e-014
rhumerus -80.42 4.58116 -78.35
rradius 70.3563
rwrist -12.1425
rhand -29.1445 12.9263
rfingers 7.12502
rthumb -2.49129 -17.0389
lclavicle 6.7388e-014 -1.78906e-014
lhumerus -18.9245 -26.8728 94.83
lradius 136.814
lwrist 16.8134
lhand -22.1369 -12.4664
lfingers 7.12502
lthumb 4.27659 17.4704
rfemur -79.3041 -8.94337 17.7305
rtibia 84.234
rfoot -12.3967 -3.99684
rtoes -32.4182
lfemur -6.32195 -9.76373 -27.5807
ltibia 35.3173
lfoot -2.30952 -15.5637
ltoes 0.253975
